<svg xmlns="http://www.w3.org/2000/svg" version="1.1" xmlns:xlink="http://www.w3.org/1999/xlink" xmlns:svgjs="http://svgjs.dev/svgjs" width="1440" height="560" preserveAspectRatio="none" viewBox="0 0 1440 560"><g mask="url(&quot;#SvgjsMask1124&quot;)" fill="none"><rect width="1440" height="560" x="0" y="0" fill="rgba(28, 28, 28, 1)"></rect><g mask="url(&quot;#SvgjsMask1125&quot;)"><path d="M-13 273L13 273" stroke="rgba(149, 146, 146, 1)" stroke-width="4.33"></path><path d="M6.5 273 a6.5 6.5 0 1 0 13 0 a6.5 6.5 0 1 0 -13 0z" fill="rgba(149, 146, 146, 1)"></path><path d="M247 273L273 299M325 273L351 299L377 299L403 299L429 299M169 273L195 299L221 299L247 299L273 325M-13 299L13 299L39 273L65 273L91 273L117 273L143 273L169 273L195 273L221 273L247 273L273 273L299 273L325 273L351 273" stroke="rgba(0, 0, 0, 1)" stroke-width="4.33"></path><path d="M344.5 273 a6.5 6.5 0 1 0 13 0 a6.5 6.5 0 1 0 -13 0zM266.5 299 a6.5 6.5 0 1 0 13 0 a6.5 6.5 0 1 0 -13 0zM422.5 299 a6.5 6.5 0 1 0 13 0 a6.5 6.5 0 1 0 -13 0zM266.5 325 a6.5 6.5 0 1 0 13 0 a6.5 6.5 0 1 0 -13 0z" fill="rgba(0, 0, 0, 1)"></path><path d="M585 273L611 299L637 299M377 247L403 273M429 247L455 273L481 299L507 299L533 299M507 273L533 247M455 247L481 247M559 273L585 247L611 247M-13 247L13 247L39 247L65 247L91 247L117 247L143 247L169 247L195 247L221 247L247 247L273 247L299 247L325 247L351 247L377 247L403 247L429 247L455 247L481 273L507 273L533 273L559 273L585 273L611 273" stroke="rgba(0, 0, 0, 1)" stroke-width="4.33"></path><path d="M604.5 273 a6.5 6.5 0 1 0 13 0 a6.5 6.5 0 1 0 -13 0zM630.5 299 a6.5 6.5 0 1 0 13 0 a6.5 6.5 0 1 0 -13 0zM396.5 273 a6.5 6.5 0 1 0 13 0 a6.5 6.5 0 1 0 -13 0zM526.5 299 a6.5 6.5 0 1 0 13 0 a6.5 6.5 0 1 0 -13 0zM526.5 247 a6.5 6.5 0 1 0 13 0 a6.5 6.5 0 1 0 -13 0zM474.5 247 a6.5 6.5 0 1 0 13 0 a6.5 6.5 0 1 0 -13 0zM604.5 247 a6.5 6.5 0 1 0 13 0 a6.5 6.5 0 1 0 -13 0z" fill="rgba(0, 0, 0, 1)"></path><path d="M169 351L195 325L221 325M377 377L403 351L429 351L455 351L481 351M949 429L975 403M325 377L351 351L377 351M767 429L793 403M637 429L663 403L689 403M65 351L91 325L117 325L143 325L169 325M897 429L923 403L949 403L975 377M793 429L819 455M611 429L637 403L663 377L689 377L715 377L741 377L767 377L793 377L819 377M-13 325L13 325L39 325L65 351L91 351L117 351L143 351L169 351L195 351L221 351L247 351L273 351L299 377L325 377L351 377L377 377L403 377L429 377L455 377L481 377L507 377L533 377L559 403L585 429L611 429L637 429L663 429L689 429L715 429L741 429L767 429L793 429L819 429L845 429L871 429L897 429L923 429L949 429L975 429L1001 429" stroke="rgba(0, 0, 0, 1)" stroke-width="4.33"></path><path d="M994.5 429 a6.5 6.5 0 1 0 13 0 a6.5 6.5 0 1 0 -13 0zM214.5 325 a6.5 6.5 0 1 0 13 0 a6.5 6.5 0 1 0 -13 0zM474.5 351 a6.5 6.5 0 1 0 13 0 a6.5 6.5 0 1 0 -13 0zM968.5 403 a6.5 6.5 0 1 0 13 0 a6.5 6.5 0 1 0 -13 0zM370.5 351 a6.5 6.5 0 1 0 13 0 a6.5 6.5 0 1 0 -13 0zM786.5 403 a6.5 6.5 0 1 0 13 0 a6.5 6.5 0 1 0 -13 0zM682.5 403 a6.5 6.5 0 1 0 13 0 a6.5 6.5 0 1 0 -13 0zM162.5 325 a6.5 6.5 0 1 0 13 0 a6.5 6.5 0 1 0 -13 0zM968.5 377 a6.5 6.5 0 1 0 13 0 a6.5 6.5 0 1 0 -13 0zM812.5 455 a6.5 6.5 0 1 0 13 0 a6.5 6.5 0 1 0 -13 0zM812.5 377 a6.5 6.5 0 1 0 13 0 a6.5 6.5 0 1 0 -13 0z" fill="rgba(0, 0, 0, 1)"></path><path d="M377 195L403 195L429 195L455 195M351 195L377 221M325 195L351 221M299 195L325 221M-13 221L13 221L39 221L65 221L91 221L117 221L143 221L169 221L195 221L221 221L247 221L273 195L299 195L325 195L351 195L377 195L403 221" stroke="rgba(149, 146, 146, 1)" stroke-width="4.33"></path><path d="M396.5 221 a6.5 6.5 0 1 0 13 0 a6.5 6.5 0 1 0 -13 0zM448.5 195 a6.5 6.5 0 1 0 13 0 a6.5 6.5 0 1 0 -13 0zM370.5 221 a6.5 6.5 0 1 0 13 0 a6.5 6.5 0 1 0 -13 0zM344.5 221 a6.5 6.5 0 1 0 13 0 a6.5 6.5 0 1 0 -13 0zM318.5 221 a6.5 6.5 0 1 0 13 0 a6.5 6.5 0 1 0 -13 0z" fill="rgba(149, 146, 146, 1)"></path><path d="M-13 351L13 351L39 351L65 377L91 377L117 377L143 377L169 377L195 377L221 377L247 377L273 377L299 403L325 403L351 403L377 403L403 403L429 403L455 403L481 403L507 403L533 403L559 429L585 455L611 455L637 455L663 455" stroke="rgba(0, 0, 0, 1)" stroke-width="4.33"></path><path d="M656.5 455 a6.5 6.5 0 1 0 13 0 a6.5 6.5 0 1 0 -13 0z" fill="rgba(0, 0, 0, 1)"></path><path d="M117 195L143 169L169 169L195 169M533 195L559 221L585 221L611 221L637 221L663 221M429 169L455 143M481 169L507 143L533 143L559 143L585 143M663 195L689 169L715 169L741 195L767 195M637 195L663 169L689 143L715 143L741 117M585 195L611 169L637 169L663 143M-13 195L13 195L39 195L65 195L91 195L117 195L143 195L169 195L195 195L221 195L247 195L273 169L299 169L325 169L351 169L377 169L403 169L429 169L455 169L481 169L507 169L533 195L559 195L585 195L611 195L637 195L663 195L689 195" stroke="rgba(0, 0, 0, 1)" stroke-width="4.33"></path><path d="M682.5 195 a6.5 6.5 0 1 0 13 0 a6.5 6.5 0 1 0 -13 0zM188.5 169 a6.5 6.5 0 1 0 13 0 a6.5 6.5 0 1 0 -13 0zM656.5 221 a6.5 6.5 0 1 0 13 0 a6.5 6.5 0 1 0 -13 0zM448.5 143 a6.5 6.5 0 1 0 13 0 a6.5 6.5 0 1 0 -13 0zM578.5 143 a6.5 6.5 0 1 0 13 0 a6.5 6.5 0 1 0 -13 0zM760.5 195 a6.5 6.5 0 1 0 13 0 a6.5 6.5 0 1 0 -13 0zM734.5 117 a6.5 6.5 0 1 0 13 0 a6.5 6.5 0 1 0 -13 0zM656.5 143 a6.5 6.5 0 1 0 13 0 a6.5 6.5 0 1 0 -13 0z" fill="rgba(0, 0, 0, 1)"></path><path d="M897 455L923 481L949 481L975 481L1001 481M793 481L819 507M481 429L507 455L533 455L559 481L585 507L611 507L637 507L663 507L689 507L715 507M741 481L767 507L793 507M689 481L715 455L741 455L767 455L793 455M871 481L897 481L923 507M13 377L39 403M845 481L871 507M-13 377L13 377L39 377L65 403L91 403L117 403L143 403L169 403L195 403L221 403L247 403L273 429L299 429L325 429L351 429L377 429L403 429L429 429L455 429L481 429L507 429L533 429L559 455L585 481L611 481L637 481L663 481L689 481L715 481L741 481L767 481L793 481L819 481L845 481L871 481L897 455L923 455L949 455L975 455L1001 455L1027 455" stroke="rgba(0, 0, 0, 1)" stroke-width="4.33"></path><path d="M1020.5 455 a6.5 6.5 0 1 0 13 0 a6.5 6.5 0 1 0 -13 0zM994.5 481 a6.5 6.5 0 1 0 13 0 a6.5 6.5 0 1 0 -13 0zM812.5 507 a6.5 6.5 0 1 0 13 0 a6.5 6.5 0 1 0 -13 0zM708.5 507 a6.5 6.5 0 1 0 13 0 a6.5 6.5 0 1 0 -13 0zM786.5 507 a6.5 6.5 0 1 0 13 0 a6.5 6.5 0 1 0 -13 0zM786.5 455 a6.5 6.5 0 1 0 13 0 a6.5 6.5 0 1 0 -13 0zM916.5 507 a6.5 6.5 0 1 0 13 0 a6.5 6.5 0 1 0 -13 0zM32.5 403 a6.5 6.5 0 1 0 13 0 a6.5 6.5 0 1 0 -13 0zM864.5 507 a6.5 6.5 0 1 0 13 0 a6.5 6.5 0 1 0 -13 0z" fill="rgba(0, 0, 0, 1)"></path><path d="M403 143L429 143M637 91L663 117L689 117L715 117M741 91L767 65L793 65L819 65L845 65M793 91L819 117L845 143L871 169L897 169L923 169L949 169L975 169L1001 169L1027 143M689 91L715 65L741 65M91 169L117 169M611 65L637 65L663 65M507 91L533 91L559 91L585 91L611 91L637 117M-13 169L13 169L39 169L65 169L91 169L117 143L143 143L169 143L195 143L221 169L247 169L273 143L299 143L325 143L351 143L377 143L403 143L429 117L455 91L481 91L507 91L533 65L559 65L585 65L611 65L637 91L663 91L689 91L715 91L741 91L767 91L793 91L819 91L845 117L871 143" stroke="rgba(0, 0, 0, 1)" stroke-width="4.33"></path><path d="M864.5 143 a6.5 6.5 0 1 0 13 0 a6.5 6.5 0 1 0 -13 0zM422.5 143 a6.5 6.5 0 1 0 13 0 a6.5 6.5 0 1 0 -13 0zM708.5 117 a6.5 6.5 0 1 0 13 0 a6.5 6.5 0 1 0 -13 0zM838.5 65 a6.5 6.5 0 1 0 13 0 a6.5 6.5 0 1 0 -13 0zM1020.5 143 a6.5 6.5 0 1 0 13 0 a6.5 6.5 0 1 0 -13 0zM734.5 65 a6.5 6.5 0 1 0 13 0 a6.5 6.5 0 1 0 -13 0zM110.5 169 a6.5 6.5 0 1 0 13 0 a6.5 6.5 0 1 0 -13 0zM656.5 65 a6.5 6.5 0 1 0 13 0 a6.5 6.5 0 1 0 -13 0zM630.5 117 a6.5 6.5 0 1 0 13 0 a6.5 6.5 0 1 0 -13 0z" fill="rgba(0, 0, 0, 1)"></path><path d="M299 455L325 481M65 429L91 455L117 455L143 455M195 429L221 455L247 455M39 429L65 455L91 481L117 481L143 507M-13 403L13 429L39 429L65 429L91 429L117 429L143 429L169 429L195 429L221 429L247 429L273 455L299 455L325 455L351 455L377 455L403 455L429 455L455 455" stroke="rgba(149, 146, 146, 1)" stroke-width="4.33"></path><path d="M448.5 455 a6.5 6.5 0 1 0 13 0 a6.5 6.5 0 1 0 -13 0zM318.5 481 a6.5 6.5 0 1 0 13 0 a6.5 6.5 0 1 0 -13 0zM136.5 455 a6.5 6.5 0 1 0 13 0 a6.5 6.5 0 1 0 -13 0zM240.5 455 a6.5 6.5 0 1 0 13 0 a6.5 6.5 0 1 0 -13 0zM136.5 507 a6.5 6.5 0 1 0 13 0 a6.5 6.5 0 1 0 -13 0z" fill="rgba(149, 146, 146, 1)"></path><path d="M117 117L143 91L169 91M247 117L273 91L299 91L325 91L351 91L377 91L403 91L429 65M221 117L247 91L273 65L299 65L325 65L351 65M65 143L91 117L117 91L143 65M-13 143L13 143L39 143L65 143L91 143L117 117L143 117L169 117L195 117L221 117L247 117L273 117L299 117L325 117L351 117L377 117L403 117L429 91L455 65L481 65L507 65" stroke="rgba(0, 0, 0, 1)" stroke-width="4.33"></path><path d="M500.5 65 a6.5 6.5 0 1 0 13 0 a6.5 6.5 0 1 0 -13 0zM162.5 91 a6.5 6.5 0 1 0 13 0 a6.5 6.5 0 1 0 -13 0zM422.5 65 a6.5 6.5 0 1 0 13 0 a6.5 6.5 0 1 0 -13 0zM344.5 65 a6.5 6.5 0 1 0 13 0 a6.5 6.5 0 1 0 -13 0zM136.5 65 a6.5 6.5 0 1 0 13 0 a6.5 6.5 0 1 0 -13 0z" fill="rgba(0, 0, 0, 1)"></path></g></g><defs><mask id="SvgjsMask1124"><rect width="1440" height="560" fill="#ffffff"></rect></mask><mask id="SvgjsMask1125"><rect width="1440" height="560" fill="white"></rect><path d="M9.75 273 a3.25 3.25 0 1 0 6.5 0 a3.25 3.25 0 1 0 -6.5 0z" fill="black"></path><path d="M347.75 273 a3.25 3.25 0 1 0 6.5 0 a3.25 3.25 0 1 0 -6.5 0zM269.75 299 a3.25 3.25 0 1 0 6.5 0 a3.25 3.25 0 1 0 -6.5 0zM425.75 299 a3.25 3.25 0 1 0 6.5 0 a3.25 3.25 0 1 0 -6.5 0zM269.75 325 a3.25 3.25 0 1 0 6.5 0 a3.25 3.25 0 1 0 -6.5 0z" fill="black"></path><path d="M607.75 273 a3.25 3.25 0 1 0 6.5 0 a3.25 3.25 0 1 0 -6.5 0zM633.75 299 a3.25 3.25 0 1 0 6.5 0 a3.25 3.25 0 1 0 -6.5 0zM399.75 273 a3.25 3.25 0 1 0 6.5 0 a3.25 3.25 0 1 0 -6.5 0zM529.75 299 a3.25 3.25 0 1 0 6.5 0 a3.25 3.25 0 1 0 -6.5 0zM529.75 247 a3.25 3.25 0 1 0 6.5 0 a3.25 3.25 0 1 0 -6.5 0zM477.75 247 a3.25 3.25 0 1 0 6.5 0 a3.25 3.25 0 1 0 -6.5 0zM607.75 247 a3.25 3.25 0 1 0 6.5 0 a3.25 3.25 0 1 0 -6.5 0z" fill="black"></path><path d="M997.75 429 a3.25 3.25 0 1 0 6.5 0 a3.25 3.25 0 1 0 -6.5 0zM217.75 325 a3.25 3.25 0 1 0 6.5 0 a3.25 3.25 0 1 0 -6.5 0zM477.75 351 a3.25 3.25 0 1 0 6.5 0 a3.25 3.25 0 1 0 -6.5 0zM971.75 403 a3.25 3.25 0 1 0 6.5 0 a3.25 3.25 0 1 0 -6.5 0zM373.75 351 a3.25 3.25 0 1 0 6.5 0 a3.25 3.25 0 1 0 -6.5 0zM789.75 403 a3.25 3.25 0 1 0 6.5 0 a3.25 3.25 0 1 0 -6.5 0zM685.75 403 a3.25 3.25 0 1 0 6.5 0 a3.25 3.25 0 1 0 -6.5 0zM165.75 325 a3.25 3.25 0 1 0 6.5 0 a3.25 3.25 0 1 0 -6.5 0zM971.75 377 a3.25 3.25 0 1 0 6.5 0 a3.25 3.25 0 1 0 -6.5 0zM815.75 455 a3.25 3.25 0 1 0 6.5 0 a3.25 3.25 0 1 0 -6.5 0zM815.75 377 a3.25 3.25 0 1 0 6.5 0 a3.25 3.25 0 1 0 -6.5 0z" fill="black"></path><path d="M399.75 221 a3.25 3.25 0 1 0 6.5 0 a3.25 3.25 0 1 0 -6.5 0zM451.75 195 a3.25 3.25 0 1 0 6.5 0 a3.25 3.25 0 1 0 -6.5 0zM373.75 221 a3.25 3.25 0 1 0 6.5 0 a3.25 3.25 0 1 0 -6.5 0zM347.75 221 a3.25 3.25 0 1 0 6.5 0 a3.25 3.25 0 1 0 -6.5 0zM321.75 221 a3.25 3.25 0 1 0 6.5 0 a3.25 3.25 0 1 0 -6.5 0z" fill="black"></path><path d="M659.75 455 a3.25 3.25 0 1 0 6.5 0 a3.25 3.25 0 1 0 -6.5 0z" fill="black"></path><path d="M685.75 195 a3.25 3.25 0 1 0 6.5 0 a3.25 3.25 0 1 0 -6.5 0zM191.75 169 a3.25 3.25 0 1 0 6.5 0 a3.25 3.25 0 1 0 -6.5 0zM659.75 221 a3.25 3.25 0 1 0 6.5 0 a3.25 3.25 0 1 0 -6.5 0zM451.75 143 a3.25 3.25 0 1 0 6.5 0 a3.25 3.25 0 1 0 -6.5 0zM581.75 143 a3.25 3.25 0 1 0 6.5 0 a3.25 3.25 0 1 0 -6.5 0zM763.75 195 a3.25 3.25 0 1 0 6.5 0 a3.25 3.25 0 1 0 -6.5 0zM737.75 117 a3.25 3.25 0 1 0 6.5 0 a3.25 3.25 0 1 0 -6.5 0zM659.75 143 a3.25 3.25 0 1 0 6.5 0 a3.25 3.25 0 1 0 -6.5 0z" fill="black"></path><path d="M1023.75 455 a3.25 3.25 0 1 0 6.5 0 a3.25 3.25 0 1 0 -6.5 0zM997.75 481 a3.25 3.25 0 1 0 6.5 0 a3.25 3.25 0 1 0 -6.5 0zM815.75 507 a3.25 3.25 0 1 0 6.5 0 a3.25 3.25 0 1 0 -6.5 0zM711.75 507 a3.25 3.25 0 1 0 6.5 0 a3.25 3.25 0 1 0 -6.5 0zM789.75 507 a3.25 3.25 0 1 0 6.5 0 a3.25 3.25 0 1 0 -6.5 0zM789.75 455 a3.25 3.25 0 1 0 6.5 0 a3.25 3.25 0 1 0 -6.5 0zM919.75 507 a3.25 3.25 0 1 0 6.5 0 a3.25 3.25 0 1 0 -6.5 0zM35.75 403 a3.25 3.25 0 1 0 6.5 0 a3.25 3.25 0 1 0 -6.5 0zM867.75 507 a3.25 3.25 0 1 0 6.5 0 a3.25 3.25 0 1 0 -6.5 0z" fill="black"></path><path d="M867.75 143 a3.25 3.25 0 1 0 6.5 0 a3.25 3.25 0 1 0 -6.5 0zM425.75 143 a3.25 3.25 0 1 0 6.5 0 a3.25 3.25 0 1 0 -6.5 0zM711.75 117 a3.25 3.25 0 1 0 6.5 0 a3.25 3.25 0 1 0 -6.5 0zM841.75 65 a3.25 3.25 0 1 0 6.5 0 a3.25 3.25 0 1 0 -6.5 0zM1023.75 143 a3.25 3.25 0 1 0 6.5 0 a3.25 3.25 0 1 0 -6.5 0zM737.75 65 a3.25 3.25 0 1 0 6.5 0 a3.25 3.25 0 1 0 -6.5 0zM113.75 169 a3.25 3.25 0 1 0 6.5 0 a3.25 3.25 0 1 0 -6.5 0zM659.75 65 a3.25 3.25 0 1 0 6.5 0 a3.25 3.25 0 1 0 -6.5 0zM633.75 117 a3.25 3.25 0 1 0 6.5 0 a3.25 3.25 0 1 0 -6.5 0z" fill="black"></path><path d="M451.75 455 a3.25 3.25 0 1 0 6.5 0 a3.25 3.25 0 1 0 -6.5 0zM321.75 481 a3.25 3.25 0 1 0 6.5 0 a3.25 3.25 0 1 0 -6.5 0zM139.75 455 a3.25 3.25 0 1 0 6.5 0 a3.25 3.25 0 1 0 -6.5 0zM243.75 455 a3.25 3.25 0 1 0 6.5 0 a3.25 3.25 0 1 0 -6.5 0zM139.75 507 a3.25 3.25 0 1 0 6.5 0 a3.25 3.25 0 1 0 -6.5 0z" fill="black"></path><path d="M503.75 65 a3.25 3.25 0 1 0 6.5 0 a3.25 3.25 0 1 0 -6.5 0zM165.75 91 a3.25 3.25 0 1 0 6.5 0 a3.25 3.25 0 1 0 -6.5 0zM425.75 65 a3.25 3.25 0 1 0 6.5 0 a3.25 3.25 0 1 0 -6.5 0zM347.75 65 a3.25 3.25 0 1 0 6.5 0 a3.25 3.25 0 1 0 -6.5 0zM139.75 65 a3.25 3.25 0 1 0 6.5 0 a3.25 3.25 0 1 0 -6.5 0z" fill="black"></path></mask></defs></svg>