<svg xmlns="http://www.w3.org/2000/svg" version="1.1" xmlns:xlink="http://www.w3.org/1999/xlink" xmlns:svgjs="http://svgjs.dev/svgjs" width="1440" height="560" preserveAspectRatio="none" viewBox="0 0 1440 560"><g mask="url(&quot;#SvgjsMask1105&quot;)" fill="none"><rect width="1440" height="560" x="0" y="0" fill="rgba(0, 0, 0, 1)"></rect><path d="M71.62 530.12L136.58 567.62L136.58 642.62L71.62 680.12L6.67 642.62L6.67 567.62zM136.58 -32.38L201.53 5.12L201.53 80.12L136.58 117.62L71.62 80.12L71.62 5.12zM201.53 305.12L266.49 342.62L266.49 417.62L201.53 455.12L136.58 417.62L136.58 342.62zM331.44 80.12L396.39 117.62L396.39 192.62L331.44 230.12L266.49 192.62L266.49 117.62zM331.44 530.12L396.39 567.62L396.39 642.62L331.44 680.12L266.49 642.62L266.49 567.62zM396.39 -32.38L461.35 5.12L461.35 80.12L396.39 117.62L331.44 80.12L331.44 5.12zM461.35 530.12L526.3 567.62L526.3 642.62L461.35 680.12L396.39 642.62L396.39 567.62zM591.25 305.12L656.21 342.62L656.21 417.62L591.25 455.12L526.3 417.62L526.3 342.62zM526.3 417.62L591.25 455.12L591.25 530.12L526.3 567.62L461.35 530.12L461.35 455.12zM656.21 192.62L721.16 230.12L721.16 305.12L656.21 342.62L591.25 305.12L591.25 230.12zM786.11 -32.38L851.07 5.12L851.07 80.12L786.11 117.62L721.16 80.12L721.16 5.12zM916.02 -32.38L980.98 5.12L980.98 80.12L916.02 117.62L851.07 80.12L851.07 5.12zM980.98 80.12L1045.93 117.62L1045.93 192.62L980.98 230.12L916.02 192.62L916.02 117.62zM916.02 192.62L980.98 230.12L980.98 305.12L916.02 342.62L851.07 305.12L851.07 230.12zM980.98 305.12L1045.93 342.62L1045.93 417.62L980.98 455.12L916.02 417.62L916.02 342.62zM916.02 417.62L980.98 455.12L980.98 530.12L916.02 567.62L851.07 530.12L851.07 455.12zM980.98 530.12L1045.93 567.62L1045.93 642.62L980.98 680.12L916.02 642.62L916.02 567.62zM1045.93 -32.38L1110.88 5.12L1110.88 80.12L1045.93 117.62L980.98 80.12L980.98 5.12zM1045.93 192.62L1110.88 230.12L1110.88 305.12L1045.93 342.62L980.98 305.12L980.98 230.12zM1045.93 417.62L1110.88 455.12L1110.88 530.12L1045.93 567.62L980.98 530.12L980.98 455.12zM1240.79 80.12L1305.74 117.62L1305.74 192.62L1240.79 230.12L1175.84 192.62L1175.84 117.62zM1175.84 192.62L1240.79 230.12L1240.79 305.12L1175.84 342.62L1110.88 305.12L1110.88 230.12zM1240.79 305.12L1305.74 342.62L1305.74 417.62L1240.79 455.12L1175.84 417.62L1175.84 342.62zM1305.75 192.62L1370.7 230.12L1370.7 305.12L1305.75 342.62L1240.79 305.12L1240.79 230.12zM1370.7 305.12L1435.65 342.62L1435.65 417.62L1370.7 455.12L1305.75 417.62L1305.75 342.62zM1500.61 80.12L1565.56 117.62L1565.56 192.62L1500.61 230.12L1435.65 192.62L1435.65 117.62z" stroke="rgba(255, 255, 255, 1)" stroke-width="2"></path><path d="M0 -63L54.56 -31.5L54.56 31.5L0 63L-54.56 31.5L-54.56 -31.5zM54.56 31.5L109.12 63L109.12 126L54.56 157.5L0 126L0 63zM0 126L54.56 157.5L54.56 220.5L0 252L-54.56 220.5L-54.56 157.5zM54.56 220.5L109.12 252L109.12 315L54.56 346.5L0 315L0 252zM0 315L54.56 346.5L54.56 409.5L0 441L-54.56 409.5L-54.56 346.5zM54.56 409.5L109.12 441L109.12 504L54.56 535.5L0 504L0 441zM0 504L54.56 535.5L54.56 598.5L0 630L-54.56 598.5L-54.56 535.5zM109.12 -63L163.68 -31.5L163.68 31.5L109.12 63L54.56 31.5L54.56 -31.5zM163.68 31.5L218.24 63L218.24 126L163.68 157.5L109.12 126L109.12 63zM109.12 126L163.68 157.5L163.68 220.5L109.12 252L54.56 220.5L54.56 157.5zM163.68 220.5L218.24 252L218.24 315L163.68 346.5L109.12 315L109.12 252zM109.12 315L163.68 346.5L163.68 409.5L109.12 441L54.56 409.5L54.56 346.5zM163.68 409.5L218.24 441L218.24 504L163.68 535.5L109.12 504L109.12 441zM109.12 504L163.68 535.5L163.68 598.5L109.12 630L54.56 598.5L54.56 535.5zM218.24 -63L272.81 -31.5L272.81 31.5L218.24 63L163.68 31.5L163.68 -31.5zM272.81 31.5L327.37 63L327.37 126L272.81 157.5L218.24 126L218.24 63zM218.24 126L272.81 157.5L272.81 220.5L218.24 252L163.68 220.5L163.68 157.5zM272.81 220.5L327.37 252L327.37 315L272.81 346.5L218.24 315L218.24 252zM218.24 315L272.81 346.5L272.81 409.5L218.24 441L163.68 409.5L163.68 346.5zM272.81 409.5L327.37 441L327.37 504L272.81 535.5L218.24 504L218.24 441zM218.24 504L272.81 535.5L272.81 598.5L218.24 630L163.68 598.5L163.68 535.5zM327.37 -63L381.93 -31.5L381.93 31.5L327.37 63L272.81 31.5L272.81 -31.5zM381.93 31.5L436.49 63L436.49 126L381.93 157.5L327.37 126L327.37 63zM327.37 126L381.93 157.5L381.93 220.5L327.37 252L272.81 220.5L272.81 157.5zM381.93 220.5L436.49 252L436.49 315L381.93 346.5L327.37 315L327.37 252zM327.37 315L381.93 346.5L381.93 409.5L327.37 441L272.81 409.5L272.81 346.5zM381.93 409.5L436.49 441L436.49 504L381.93 535.5L327.37 504L327.37 441zM327.37 504L381.93 535.5L381.93 598.5L327.37 630L272.81 598.5L272.81 535.5zM436.49 -63L491.05 -31.5L491.05 31.5L436.49 63L381.93 31.5L381.93 -31.5zM491.05 31.5L545.61 63L545.61 126L491.05 157.5L436.49 126L436.49 63zM436.49 126L491.05 157.5L491.05 220.5L436.49 252L381.93 220.5L381.93 157.5zM491.05 220.5L545.61 252L545.61 315L491.05 346.5L436.49 315L436.49 252zM436.49 315L491.05 346.5L491.05 409.5L436.49 441L381.93 409.5L381.93 346.5zM491.05 409.5L545.61 441L545.61 504L491.05 535.5L436.49 504L436.49 441zM436.49 504L491.05 535.5L491.05 598.5L436.49 630L381.93 598.5L381.93 535.5zM545.61 -63L600.17 -31.5L600.17 31.5L545.61 63L491.05 31.5L491.05 -31.5zM600.17 31.5L654.73 63L654.73 126L600.17 157.5L545.61 126L545.61 63zM545.61 126L600.17 157.5L600.17 220.5L545.61 252L491.05 220.5L491.05 157.5zM600.17 220.5L654.73 252L654.73 315L600.17 346.5L545.61 315L545.61 252zM545.61 315L600.17 346.5L600.17 409.5L545.61 441L491.05 409.5L491.05 346.5zM600.17 409.5L654.73 441L654.73 504L600.17 535.5L545.61 504L545.61 441zM545.61 504L600.17 535.5L600.17 598.5L545.61 630L491.05 598.5L491.05 535.5zM654.73 -63L709.29 -31.5L709.29 31.5L654.73 63L600.17 31.5L600.17 -31.5zM709.29 31.5L763.86 63L763.86 126L709.29 157.5L654.73 126L654.73 63zM654.73 126L709.29 157.5L709.29 220.5L654.73 252L600.17 220.5L600.17 157.5zM709.29 220.5L763.86 252L763.86 315L709.29 346.5L654.73 315L654.73 252zM654.73 315L709.29 346.5L709.29 409.5L654.73 441L600.17 409.5L600.17 346.5zM709.29 409.5L763.86 441L763.86 504L709.29 535.5L654.73 504L654.73 441zM654.73 504L709.29 535.5L709.29 598.5L654.73 630L600.17 598.5L600.17 535.5zM763.86 -63L818.42 -31.5L818.42 31.5L763.86 63L709.29 31.5L709.29 -31.5zM818.42 31.5L872.98 63L872.98 126L818.42 157.5L763.86 126L763.86 63zM763.86 126L818.42 157.5L818.42 220.5L763.86 252L709.29 220.5L709.29 157.5zM818.42 220.5L872.98 252L872.98 315L818.42 346.5L763.86 315L763.86 252zM763.86 315L818.42 346.5L818.42 409.5L763.86 441L709.29 409.5L709.29 346.5zM818.42 409.5L872.98 441L872.98 504L818.42 535.5L763.86 504L763.86 441zM763.86 504L818.42 535.5L818.42 598.5L763.86 630L709.29 598.5L709.29 535.5zM872.98 -63L927.54 -31.5L927.54 31.5L872.98 63L818.42 31.5L818.42 -31.5zM927.54 31.5L982.1 63L982.1 126L927.54 157.5L872.98 126L872.98 63zM872.98 126L927.54 157.5L927.54 220.5L872.98 252L818.42 220.5L818.42 157.5zM927.54 220.5L982.1 252L982.1 315L927.54 346.5L872.98 315L872.98 252zM872.98 315L927.54 346.5L927.54 409.5L872.98 441L818.42 409.5L818.42 346.5zM927.54 409.5L982.1 441L982.1 504L927.54 535.5L872.98 504L872.98 441zM872.98 504L927.54 535.5L927.54 598.5L872.98 630L818.42 598.5L818.42 535.5zM982.1 -63L1036.66 -31.5L1036.66 31.5L982.1 63L927.54 31.5L927.54 -31.5zM1036.66 31.5L1091.22 63L1091.22 126L1036.66 157.5L982.1 126L982.1 63zM982.1 126L1036.66 157.5L1036.66 220.5L982.1 252L927.54 220.5L927.54 157.5zM1036.66 220.5L1091.22 252L1091.22 315L1036.66 346.5L982.1 315L982.1 252zM982.1 315L1036.66 346.5L1036.66 409.5L982.1 441L927.54 409.5L927.54 346.5zM1036.66 409.5L1091.22 441L1091.22 504L1036.66 535.5L982.1 504L982.1 441zM982.1 504L1036.66 535.5L1036.66 598.5L982.1 630L927.54 598.5L927.54 535.5zM1091.22 -63L1145.78 -31.5L1145.78 31.5L1091.22 63L1036.66 31.5L1036.66 -31.5zM1145.78 31.5L1200.35 63L1200.35 126L1145.78 157.5L1091.22 126L1091.22 63zM1091.22 126L1145.78 157.5L1145.78 220.5L1091.22 252L1036.66 220.5L1036.66 157.5zM1145.78 220.5L1200.35 252L1200.35 315L1145.78 346.5L1091.22 315L1091.22 252zM1091.22 315L1145.78 346.5L1145.78 409.5L1091.22 441L1036.66 409.5L1036.66 346.5zM1145.78 409.5L1200.35 441L1200.35 504L1145.78 535.5L1091.22 504L1091.22 441zM1091.22 504L1145.78 535.5L1145.78 598.5L1091.22 630L1036.66 598.5L1036.66 535.5zM1200.35 -63L1254.91 -31.5L1254.91 31.5L1200.35 63L1145.78 31.5L1145.78 -31.5zM1254.91 31.5L1309.47 63L1309.47 126L1254.91 157.5L1200.35 126L1200.35 63zM1200.35 126L1254.91 157.5L1254.91 220.5L1200.35 252L1145.78 220.5L1145.78 157.5zM1254.91 220.5L1309.47 252L1309.47 315L1254.91 346.5L1200.35 315L1200.35 252zM1200.35 315L1254.91 346.5L1254.91 409.5L1200.35 441L1145.78 409.5L1145.78 346.5zM1254.91 409.5L1309.47 441L1309.47 504L1254.91 535.5L1200.35 504L1200.35 441zM1200.35 504L1254.91 535.5L1254.91 598.5L1200.35 630L1145.78 598.5L1145.78 535.5zM1309.47 -63L1364.03 -31.5L1364.03 31.5L1309.47 63L1254.91 31.5L1254.91 -31.5zM1364.03 31.5L1418.59 63L1418.59 126L1364.03 157.5L1309.47 126L1309.47 63zM1309.47 126L1364.03 157.5L1364.03 220.5L1309.47 252L1254.91 220.5L1254.91 157.5zM1364.03 220.5L1418.59 252L1418.59 315L1364.03 346.5L1309.47 315L1309.47 252zM1309.47 315L1364.03 346.5L1364.03 409.5L1309.47 441L1254.91 409.5L1254.91 346.5zM1364.03 409.5L1418.59 441L1418.59 504L1364.03 535.5L1309.47 504L1309.47 441zM1309.47 504L1364.03 535.5L1364.03 598.5L1309.47 630L1254.91 598.5L1254.91 535.5zM1418.59 -63L1473.15 -31.5L1473.15 31.5L1418.59 63L1364.03 31.5L1364.03 -31.5zM1473.15 31.5L1527.71 63L1527.71 126L1473.15 157.5L1418.59 126L1418.59 63zM1418.59 126L1473.15 157.5L1473.15 220.5L1418.59 252L1364.03 220.5L1364.03 157.5zM1473.15 220.5L1527.71 252L1527.71 315L1473.15 346.5L1418.59 315L1418.59 252zM1418.59 315L1473.15 346.5L1473.15 409.5L1418.59 441L1364.03 409.5L1364.03 346.5zM1473.15 409.5L1527.71 441L1527.71 504L1473.15 535.5L1418.59 504L1418.59 441zM1418.59 504L1473.15 535.5L1473.15 598.5L1418.59 630L1364.03 598.5L1364.03 535.5z" stroke="rgba(255, 255, 255, 0.93)" stroke-width="2"></path><path d="M-6.3 -63 a6.3 6.3 0 1 0 12.6 0 a6.3 6.3 0 1 0 -12.6 0zM48.26 -31.5 a6.3 6.3 0 1 0 12.6 0 a6.3 6.3 0 1 0 -12.6 0zM48.26 31.5 a6.3 6.3 0 1 0 12.6 0 a6.3 6.3 0 1 0 -12.6 0zM-6.3 63 a6.3 6.3 0 1 0 12.6 0 a6.3 6.3 0 1 0 -12.6 0zM-60.86 31.5 a6.3 6.3 0 1 0 12.6 0 a6.3 6.3 0 1 0 -12.6 0zM-60.86 -31.5 a6.3 6.3 0 1 0 12.6 0 a6.3 6.3 0 1 0 -12.6 0zM102.82 63 a6.3 6.3 0 1 0 12.6 0 a6.3 6.3 0 1 0 -12.6 0zM102.82 126 a6.3 6.3 0 1 0 12.6 0 a6.3 6.3 0 1 0 -12.6 0zM48.26 157.5 a6.3 6.3 0 1 0 12.6 0 a6.3 6.3 0 1 0 -12.6 0zM-6.3 126 a6.3 6.3 0 1 0 12.6 0 a6.3 6.3 0 1 0 -12.6 0zM48.26 220.5 a6.3 6.3 0 1 0 12.6 0 a6.3 6.3 0 1 0 -12.6 0zM-6.3 252 a6.3 6.3 0 1 0 12.6 0 a6.3 6.3 0 1 0 -12.6 0zM-60.86 220.5 a6.3 6.3 0 1 0 12.6 0 a6.3 6.3 0 1 0 -12.6 0zM-60.86 157.5 a6.3 6.3 0 1 0 12.6 0 a6.3 6.3 0 1 0 -12.6 0zM102.82 252 a6.3 6.3 0 1 0 12.6 0 a6.3 6.3 0 1 0 -12.6 0zM102.82 315 a6.3 6.3 0 1 0 12.6 0 a6.3 6.3 0 1 0 -12.6 0zM48.26 346.5 a6.3 6.3 0 1 0 12.6 0 a6.3 6.3 0 1 0 -12.6 0zM-6.3 315 a6.3 6.3 0 1 0 12.6 0 a6.3 6.3 0 1 0 -12.6 0zM48.26 409.5 a6.3 6.3 0 1 0 12.6 0 a6.3 6.3 0 1 0 -12.6 0zM-6.3 441 a6.3 6.3 0 1 0 12.6 0 a6.3 6.3 0 1 0 -12.6 0zM-60.86 409.5 a6.3 6.3 0 1 0 12.6 0 a6.3 6.3 0 1 0 -12.6 0zM-60.86 346.5 a6.3 6.3 0 1 0 12.6 0 a6.3 6.3 0 1 0 -12.6 0zM102.82 441 a6.3 6.3 0 1 0 12.6 0 a6.3 6.3 0 1 0 -12.6 0zM102.82 504 a6.3 6.3 0 1 0 12.6 0 a6.3 6.3 0 1 0 -12.6 0zM48.26 535.5 a6.3 6.3 0 1 0 12.6 0 a6.3 6.3 0 1 0 -12.6 0zM-6.3 504 a6.3 6.3 0 1 0 12.6 0 a6.3 6.3 0 1 0 -12.6 0zM48.26 598.5 a6.3 6.3 0 1 0 12.6 0 a6.3 6.3 0 1 0 -12.6 0zM-6.3 630 a6.3 6.3 0 1 0 12.6 0 a6.3 6.3 0 1 0 -12.6 0zM-60.86 598.5 a6.3 6.3 0 1 0 12.6 0 a6.3 6.3 0 1 0 -12.6 0zM-60.86 535.5 a6.3 6.3 0 1 0 12.6 0 a6.3 6.3 0 1 0 -12.6 0zM102.82 -63 a6.3 6.3 0 1 0 12.6 0 a6.3 6.3 0 1 0 -12.6 0zM157.38 -31.5 a6.3 6.3 0 1 0 12.6 0 a6.3 6.3 0 1 0 -12.6 0zM157.38 31.5 a6.3 6.3 0 1 0 12.6 0 a6.3 6.3 0 1 0 -12.6 0zM211.94 63 a6.3 6.3 0 1 0 12.6 0 a6.3 6.3 0 1 0 -12.6 0zM211.94 126 a6.3 6.3 0 1 0 12.6 0 a6.3 6.3 0 1 0 -12.6 0zM157.38 157.5 a6.3 6.3 0 1 0 12.6 0 a6.3 6.3 0 1 0 -12.6 0zM157.38 220.5 a6.3 6.3 0 1 0 12.6 0 a6.3 6.3 0 1 0 -12.6 0zM211.94 252 a6.3 6.3 0 1 0 12.6 0 a6.3 6.3 0 1 0 -12.6 0zM211.94 315 a6.3 6.3 0 1 0 12.6 0 a6.3 6.3 0 1 0 -12.6 0zM157.38 346.5 a6.3 6.3 0 1 0 12.6 0 a6.3 6.3 0 1 0 -12.6 0zM157.38 409.5 a6.3 6.3 0 1 0 12.6 0 a6.3 6.3 0 1 0 -12.6 0zM211.94 441 a6.3 6.3 0 1 0 12.6 0 a6.3 6.3 0 1 0 -12.6 0zM211.94 504 a6.3 6.3 0 1 0 12.6 0 a6.3 6.3 0 1 0 -12.6 0zM157.38 535.5 a6.3 6.3 0 1 0 12.6 0 a6.3 6.3 0 1 0 -12.6 0zM157.38 598.5 a6.3 6.3 0 1 0 12.6 0 a6.3 6.3 0 1 0 -12.6 0zM102.82 630 a6.3 6.3 0 1 0 12.6 0 a6.3 6.3 0 1 0 -12.6 0zM211.94 -63 a6.3 6.3 0 1 0 12.6 0 a6.3 6.3 0 1 0 -12.6 0zM266.51 -31.5 a6.3 6.3 0 1 0 12.6 0 a6.3 6.3 0 1 0 -12.6 0zM266.51 31.5 a6.3 6.3 0 1 0 12.6 0 a6.3 6.3 0 1 0 -12.6 0zM321.07 63 a6.3 6.3 0 1 0 12.6 0 a6.3 6.3 0 1 0 -12.6 0zM321.07 126 a6.3 6.3 0 1 0 12.6 0 a6.3 6.3 0 1 0 -12.6 0zM266.51 157.5 a6.3 6.3 0 1 0 12.6 0 a6.3 6.3 0 1 0 -12.6 0zM266.51 220.5 a6.3 6.3 0 1 0 12.6 0 a6.3 6.3 0 1 0 -12.6 0zM321.07 252 a6.3 6.3 0 1 0 12.6 0 a6.3 6.3 0 1 0 -12.6 0zM321.07 315 a6.3 6.3 0 1 0 12.6 0 a6.3 6.3 0 1 0 -12.6 0zM266.51 346.5 a6.3 6.3 0 1 0 12.6 0 a6.3 6.3 0 1 0 -12.6 0zM266.51 409.5 a6.3 6.3 0 1 0 12.6 0 a6.3 6.3 0 1 0 -12.6 0zM321.07 441 a6.3 6.3 0 1 0 12.6 0 a6.3 6.3 0 1 0 -12.6 0zM321.07 504 a6.3 6.3 0 1 0 12.6 0 a6.3 6.3 0 1 0 -12.6 0zM266.51 535.5 a6.3 6.3 0 1 0 12.6 0 a6.3 6.3 0 1 0 -12.6 0zM266.51 598.5 a6.3 6.3 0 1 0 12.6 0 a6.3 6.3 0 1 0 -12.6 0zM211.94 630 a6.3 6.3 0 1 0 12.6 0 a6.3 6.3 0 1 0 -12.6 0zM321.07 -63 a6.3 6.3 0 1 0 12.6 0 a6.3 6.3 0 1 0 -12.6 0zM375.63 -31.5 a6.3 6.3 0 1 0 12.6 0 a6.3 6.3 0 1 0 -12.6 0zM375.63 31.5 a6.3 6.3 0 1 0 12.6 0 a6.3 6.3 0 1 0 -12.6 0zM430.19 63 a6.3 6.3 0 1 0 12.6 0 a6.3 6.3 0 1 0 -12.6 0zM430.19 126 a6.3 6.3 0 1 0 12.6 0 a6.3 6.3 0 1 0 -12.6 0zM375.63 157.5 a6.3 6.3 0 1 0 12.6 0 a6.3 6.3 0 1 0 -12.6 0zM375.63 220.5 a6.3 6.3 0 1 0 12.6 0 a6.3 6.3 0 1 0 -12.6 0zM430.19 252 a6.3 6.3 0 1 0 12.6 0 a6.3 6.3 0 1 0 -12.6 0zM430.19 315 a6.3 6.3 0 1 0 12.6 0 a6.3 6.3 0 1 0 -12.6 0zM375.63 346.5 a6.3 6.3 0 1 0 12.6 0 a6.3 6.3 0 1 0 -12.6 0zM375.63 409.5 a6.3 6.3 0 1 0 12.6 0 a6.3 6.3 0 1 0 -12.6 0zM430.19 441 a6.3 6.3 0 1 0 12.6 0 a6.3 6.3 0 1 0 -12.6 0zM430.19 504 a6.3 6.3 0 1 0 12.6 0 a6.3 6.3 0 1 0 -12.6 0zM375.63 535.5 a6.3 6.3 0 1 0 12.6 0 a6.3 6.3 0 1 0 -12.6 0zM375.63 598.5 a6.3 6.3 0 1 0 12.6 0 a6.3 6.3 0 1 0 -12.6 0zM321.07 630 a6.3 6.3 0 1 0 12.6 0 a6.3 6.3 0 1 0 -12.6 0zM430.19 -63 a6.3 6.3 0 1 0 12.6 0 a6.3 6.3 0 1 0 -12.6 0zM484.75 -31.5 a6.3 6.3 0 1 0 12.6 0 a6.3 6.3 0 1 0 -12.6 0zM484.75 31.5 a6.3 6.3 0 1 0 12.6 0 a6.3 6.3 0 1 0 -12.6 0zM539.31 63 a6.3 6.3 0 1 0 12.6 0 a6.3 6.3 0 1 0 -12.6 0zM539.31 126 a6.3 6.3 0 1 0 12.6 0 a6.3 6.3 0 1 0 -12.6 0zM484.75 157.5 a6.3 6.3 0 1 0 12.6 0 a6.3 6.3 0 1 0 -12.6 0zM484.75 220.5 a6.3 6.3 0 1 0 12.6 0 a6.3 6.3 0 1 0 -12.6 0zM539.31 252 a6.3 6.3 0 1 0 12.6 0 a6.3 6.3 0 1 0 -12.6 0zM539.31 315 a6.3 6.3 0 1 0 12.6 0 a6.3 6.3 0 1 0 -12.6 0zM484.75 346.5 a6.3 6.3 0 1 0 12.6 0 a6.3 6.3 0 1 0 -12.6 0zM484.75 409.5 a6.3 6.3 0 1 0 12.6 0 a6.3 6.3 0 1 0 -12.6 0zM539.31 441 a6.3 6.3 0 1 0 12.6 0 a6.3 6.3 0 1 0 -12.6 0zM539.31 504 a6.3 6.3 0 1 0 12.6 0 a6.3 6.3 0 1 0 -12.6 0zM484.75 535.5 a6.3 6.3 0 1 0 12.6 0 a6.3 6.3 0 1 0 -12.6 0zM484.75 598.5 a6.3 6.3 0 1 0 12.6 0 a6.3 6.3 0 1 0 -12.6 0zM430.19 630 a6.3 6.3 0 1 0 12.6 0 a6.3 6.3 0 1 0 -12.6 0zM539.31 -63 a6.3 6.3 0 1 0 12.6 0 a6.3 6.3 0 1 0 -12.6 0zM593.87 -31.5 a6.3 6.3 0 1 0 12.6 0 a6.3 6.3 0 1 0 -12.6 0zM593.87 31.5 a6.3 6.3 0 1 0 12.6 0 a6.3 6.3 0 1 0 -12.6 0zM648.43 63 a6.3 6.3 0 1 0 12.6 0 a6.3 6.3 0 1 0 -12.6 0zM648.43 126 a6.3 6.3 0 1 0 12.6 0 a6.3 6.3 0 1 0 -12.6 0zM593.87 157.5 a6.3 6.3 0 1 0 12.6 0 a6.3 6.3 0 1 0 -12.6 0zM593.87 220.5 a6.3 6.3 0 1 0 12.6 0 a6.3 6.3 0 1 0 -12.6 0zM648.43 252 a6.3 6.3 0 1 0 12.6 0 a6.3 6.3 0 1 0 -12.6 0zM648.43 315 a6.3 6.3 0 1 0 12.6 0 a6.3 6.3 0 1 0 -12.6 0zM593.87 346.5 a6.3 6.3 0 1 0 12.6 0 a6.3 6.3 0 1 0 -12.6 0zM593.87 409.5 a6.3 6.3 0 1 0 12.6 0 a6.3 6.3 0 1 0 -12.6 0zM648.43 441 a6.3 6.3 0 1 0 12.6 0 a6.3 6.3 0 1 0 -12.6 0zM648.43 504 a6.3 6.3 0 1 0 12.6 0 a6.3 6.3 0 1 0 -12.6 0zM593.87 535.5 a6.3 6.3 0 1 0 12.6 0 a6.3 6.3 0 1 0 -12.6 0zM593.87 598.5 a6.3 6.3 0 1 0 12.6 0 a6.3 6.3 0 1 0 -12.6 0zM539.31 630 a6.3 6.3 0 1 0 12.6 0 a6.3 6.3 0 1 0 -12.6 0zM648.43 -63 a6.3 6.3 0 1 0 12.6 0 a6.3 6.3 0 1 0 -12.6 0zM702.99 -31.5 a6.3 6.3 0 1 0 12.6 0 a6.3 6.3 0 1 0 -12.6 0zM702.99 31.5 a6.3 6.3 0 1 0 12.6 0 a6.3 6.3 0 1 0 -12.6 0zM757.56 63 a6.3 6.3 0 1 0 12.6 0 a6.3 6.3 0 1 0 -12.6 0zM757.56 126 a6.3 6.3 0 1 0 12.6 0 a6.3 6.3 0 1 0 -12.6 0zM702.99 157.5 a6.3 6.3 0 1 0 12.6 0 a6.3 6.3 0 1 0 -12.6 0zM702.99 220.5 a6.3 6.3 0 1 0 12.6 0 a6.3 6.3 0 1 0 -12.6 0zM757.56 252 a6.3 6.3 0 1 0 12.6 0 a6.3 6.3 0 1 0 -12.6 0zM757.56 315 a6.3 6.3 0 1 0 12.6 0 a6.3 6.3 0 1 0 -12.6 0zM702.99 346.5 a6.3 6.3 0 1 0 12.6 0 a6.3 6.3 0 1 0 -12.6 0zM702.99 409.5 a6.3 6.3 0 1 0 12.6 0 a6.3 6.3 0 1 0 -12.6 0zM757.56 441 a6.3 6.3 0 1 0 12.6 0 a6.3 6.3 0 1 0 -12.6 0zM757.56 504 a6.3 6.3 0 1 0 12.6 0 a6.3 6.3 0 1 0 -12.6 0zM702.99 535.5 a6.3 6.3 0 1 0 12.6 0 a6.3 6.3 0 1 0 -12.6 0zM702.99 598.5 a6.3 6.3 0 1 0 12.6 0 a6.3 6.3 0 1 0 -12.6 0zM648.43 630 a6.3 6.3 0 1 0 12.6 0 a6.3 6.3 0 1 0 -12.6 0zM757.56 -63 a6.3 6.3 0 1 0 12.6 0 a6.3 6.3 0 1 0 -12.6 0zM812.12 -31.5 a6.3 6.3 0 1 0 12.6 0 a6.3 6.3 0 1 0 -12.6 0zM812.12 31.5 a6.3 6.3 0 1 0 12.6 0 a6.3 6.3 0 1 0 -12.6 0zM866.68 63 a6.3 6.3 0 1 0 12.6 0 a6.3 6.3 0 1 0 -12.6 0zM866.68 126 a6.3 6.3 0 1 0 12.6 0 a6.3 6.3 0 1 0 -12.6 0zM812.12 157.5 a6.3 6.3 0 1 0 12.6 0 a6.3 6.3 0 1 0 -12.6 0zM812.12 220.5 a6.3 6.3 0 1 0 12.6 0 a6.3 6.3 0 1 0 -12.6 0zM866.68 252 a6.3 6.3 0 1 0 12.6 0 a6.3 6.3 0 1 0 -12.6 0zM866.68 315 a6.3 6.3 0 1 0 12.6 0 a6.3 6.3 0 1 0 -12.6 0zM812.12 346.5 a6.3 6.3 0 1 0 12.6 0 a6.3 6.3 0 1 0 -12.6 0zM812.12 409.5 a6.3 6.3 0 1 0 12.6 0 a6.3 6.3 0 1 0 -12.6 0zM866.68 441 a6.3 6.3 0 1 0 12.6 0 a6.3 6.3 0 1 0 -12.6 0zM866.68 504 a6.3 6.3 0 1 0 12.6 0 a6.3 6.3 0 1 0 -12.6 0zM812.12 535.5 a6.3 6.3 0 1 0 12.6 0 a6.3 6.3 0 1 0 -12.6 0zM812.12 598.5 a6.3 6.3 0 1 0 12.6 0 a6.3 6.3 0 1 0 -12.6 0zM757.56 630 a6.3 6.3 0 1 0 12.6 0 a6.3 6.3 0 1 0 -12.6 0zM866.68 -63 a6.3 6.3 0 1 0 12.6 0 a6.3 6.3 0 1 0 -12.6 0zM921.24 -31.5 a6.3 6.3 0 1 0 12.6 0 a6.3 6.3 0 1 0 -12.6 0zM921.24 31.5 a6.3 6.3 0 1 0 12.6 0 a6.3 6.3 0 1 0 -12.6 0zM975.8 63 a6.3 6.3 0 1 0 12.6 0 a6.3 6.3 0 1 0 -12.6 0zM975.8 126 a6.3 6.3 0 1 0 12.6 0 a6.3 6.3 0 1 0 -12.6 0zM921.24 157.5 a6.3 6.3 0 1 0 12.6 0 a6.3 6.3 0 1 0 -12.6 0zM921.24 220.5 a6.3 6.3 0 1 0 12.6 0 a6.3 6.3 0 1 0 -12.6 0zM975.8 252 a6.3 6.3 0 1 0 12.6 0 a6.3 6.3 0 1 0 -12.6 0zM975.8 315 a6.3 6.3 0 1 0 12.6 0 a6.3 6.3 0 1 0 -12.6 0zM921.24 346.5 a6.3 6.3 0 1 0 12.6 0 a6.3 6.3 0 1 0 -12.6 0zM921.24 409.5 a6.3 6.3 0 1 0 12.6 0 a6.3 6.3 0 1 0 -12.6 0zM975.8 441 a6.3 6.3 0 1 0 12.6 0 a6.3 6.3 0 1 0 -12.6 0zM975.8 504 a6.3 6.3 0 1 0 12.6 0 a6.3 6.3 0 1 0 -12.6 0zM921.24 535.5 a6.3 6.3 0 1 0 12.6 0 a6.3 6.3 0 1 0 -12.6 0zM921.24 598.5 a6.3 6.3 0 1 0 12.6 0 a6.3 6.3 0 1 0 -12.6 0zM866.68 630 a6.3 6.3 0 1 0 12.6 0 a6.3 6.3 0 1 0 -12.6 0zM975.8 -63 a6.3 6.3 0 1 0 12.6 0 a6.3 6.3 0 1 0 -12.6 0zM1030.36 -31.5 a6.3 6.3 0 1 0 12.6 0 a6.3 6.3 0 1 0 -12.6 0zM1030.36 31.5 a6.3 6.3 0 1 0 12.6 0 a6.3 6.3 0 1 0 -12.6 0zM1084.92 63 a6.3 6.3 0 1 0 12.6 0 a6.3 6.3 0 1 0 -12.6 0zM1084.92 126 a6.3 6.3 0 1 0 12.6 0 a6.3 6.3 0 1 0 -12.6 0zM1030.36 157.5 a6.3 6.3 0 1 0 12.6 0 a6.3 6.3 0 1 0 -12.6 0zM1030.36 220.5 a6.3 6.3 0 1 0 12.6 0 a6.3 6.3 0 1 0 -12.6 0zM1084.92 252 a6.3 6.3 0 1 0 12.6 0 a6.3 6.3 0 1 0 -12.6 0zM1084.92 315 a6.3 6.3 0 1 0 12.6 0 a6.3 6.3 0 1 0 -12.6 0zM1030.36 346.5 a6.3 6.3 0 1 0 12.6 0 a6.3 6.3 0 1 0 -12.6 0zM1030.36 409.5 a6.3 6.3 0 1 0 12.6 0 a6.3 6.3 0 1 0 -12.6 0zM1084.92 441 a6.3 6.3 0 1 0 12.6 0 a6.3 6.3 0 1 0 -12.6 0zM1084.92 504 a6.3 6.3 0 1 0 12.6 0 a6.3 6.3 0 1 0 -12.6 0zM1030.36 535.5 a6.3 6.3 0 1 0 12.6 0 a6.3 6.3 0 1 0 -12.6 0zM1030.36 598.5 a6.3 6.3 0 1 0 12.6 0 a6.3 6.3 0 1 0 -12.6 0zM975.8 630 a6.3 6.3 0 1 0 12.6 0 a6.3 6.3 0 1 0 -12.6 0zM1084.92 -63 a6.3 6.3 0 1 0 12.6 0 a6.3 6.3 0 1 0 -12.6 0zM1139.48 -31.5 a6.3 6.3 0 1 0 12.6 0 a6.3 6.3 0 1 0 -12.6 0zM1139.48 31.5 a6.3 6.3 0 1 0 12.6 0 a6.3 6.3 0 1 0 -12.6 0zM1194.05 63 a6.3 6.3 0 1 0 12.6 0 a6.3 6.3 0 1 0 -12.6 0zM1194.05 126 a6.3 6.3 0 1 0 12.6 0 a6.3 6.3 0 1 0 -12.6 0zM1139.48 157.5 a6.3 6.3 0 1 0 12.6 0 a6.3 6.3 0 1 0 -12.6 0zM1139.48 220.5 a6.3 6.3 0 1 0 12.6 0 a6.3 6.3 0 1 0 -12.6 0zM1194.05 252 a6.3 6.3 0 1 0 12.6 0 a6.3 6.3 0 1 0 -12.6 0zM1194.05 315 a6.3 6.3 0 1 0 12.6 0 a6.3 6.3 0 1 0 -12.6 0zM1139.48 346.5 a6.3 6.3 0 1 0 12.6 0 a6.3 6.3 0 1 0 -12.6 0zM1139.48 409.5 a6.3 6.3 0 1 0 12.6 0 a6.3 6.3 0 1 0 -12.6 0zM1194.05 441 a6.3 6.3 0 1 0 12.6 0 a6.3 6.3 0 1 0 -12.6 0zM1194.05 504 a6.3 6.3 0 1 0 12.6 0 a6.3 6.3 0 1 0 -12.6 0zM1139.48 535.5 a6.3 6.3 0 1 0 12.6 0 a6.3 6.3 0 1 0 -12.6 0zM1139.48 598.5 a6.3 6.3 0 1 0 12.6 0 a6.3 6.3 0 1 0 -12.6 0zM1084.92 630 a6.3 6.3 0 1 0 12.6 0 a6.3 6.3 0 1 0 -12.6 0zM1194.05 -63 a6.3 6.3 0 1 0 12.6 0 a6.3 6.3 0 1 0 -12.6 0zM1248.61 -31.5 a6.3 6.3 0 1 0 12.6 0 a6.3 6.3 0 1 0 -12.6 0zM1248.61 31.5 a6.3 6.3 0 1 0 12.6 0 a6.3 6.3 0 1 0 -12.6 0zM1303.17 63 a6.3 6.3 0 1 0 12.6 0 a6.3 6.3 0 1 0 -12.6 0zM1303.17 126 a6.3 6.3 0 1 0 12.6 0 a6.3 6.3 0 1 0 -12.6 0zM1248.61 157.5 a6.3 6.3 0 1 0 12.6 0 a6.3 6.3 0 1 0 -12.6 0zM1248.61 220.5 a6.3 6.3 0 1 0 12.6 0 a6.3 6.3 0 1 0 -12.6 0zM1303.17 252 a6.3 6.3 0 1 0 12.6 0 a6.3 6.3 0 1 0 -12.6 0zM1303.17 315 a6.3 6.3 0 1 0 12.6 0 a6.3 6.3 0 1 0 -12.6 0zM1248.61 346.5 a6.3 6.3 0 1 0 12.6 0 a6.3 6.3 0 1 0 -12.6 0zM1248.61 409.5 a6.3 6.3 0 1 0 12.6 0 a6.3 6.3 0 1 0 -12.6 0zM1303.17 441 a6.3 6.3 0 1 0 12.6 0 a6.3 6.3 0 1 0 -12.6 0zM1303.17 504 a6.3 6.3 0 1 0 12.6 0 a6.3 6.3 0 1 0 -12.6 0zM1248.61 535.5 a6.3 6.3 0 1 0 12.6 0 a6.3 6.3 0 1 0 -12.6 0zM1248.61 598.5 a6.3 6.3 0 1 0 12.6 0 a6.3 6.3 0 1 0 -12.6 0zM1194.05 630 a6.3 6.3 0 1 0 12.6 0 a6.3 6.3 0 1 0 -12.6 0zM1303.17 -63 a6.3 6.3 0 1 0 12.6 0 a6.3 6.3 0 1 0 -12.6 0zM1357.73 -31.5 a6.3 6.3 0 1 0 12.6 0 a6.3 6.3 0 1 0 -12.6 0zM1357.73 31.5 a6.3 6.3 0 1 0 12.6 0 a6.3 6.3 0 1 0 -12.6 0zM1412.29 63 a6.3 6.3 0 1 0 12.6 0 a6.3 6.3 0 1 0 -12.6 0zM1412.29 126 a6.3 6.3 0 1 0 12.6 0 a6.3 6.3 0 1 0 -12.6 0zM1357.73 157.5 a6.3 6.3 0 1 0 12.6 0 a6.3 6.3 0 1 0 -12.6 0zM1357.73 220.5 a6.3 6.3 0 1 0 12.6 0 a6.3 6.3 0 1 0 -12.6 0zM1412.29 252 a6.3 6.3 0 1 0 12.6 0 a6.3 6.3 0 1 0 -12.6 0zM1412.29 315 a6.3 6.3 0 1 0 12.6 0 a6.3 6.3 0 1 0 -12.6 0zM1357.73 346.5 a6.3 6.3 0 1 0 12.6 0 a6.3 6.3 0 1 0 -12.6 0zM1357.73 409.5 a6.3 6.3 0 1 0 12.6 0 a6.3 6.3 0 1 0 -12.6 0zM1412.29 441 a6.3 6.3 0 1 0 12.6 0 a6.3 6.3 0 1 0 -12.6 0zM1412.29 504 a6.3 6.3 0 1 0 12.6 0 a6.3 6.3 0 1 0 -12.6 0zM1357.73 535.5 a6.3 6.3 0 1 0 12.6 0 a6.3 6.3 0 1 0 -12.6 0zM1357.73 598.5 a6.3 6.3 0 1 0 12.6 0 a6.3 6.3 0 1 0 -12.6 0zM1303.17 630 a6.3 6.3 0 1 0 12.6 0 a6.3 6.3 0 1 0 -12.6 0zM1412.29 -63 a6.3 6.3 0 1 0 12.6 0 a6.3 6.3 0 1 0 -12.6 0zM1466.85 -31.5 a6.3 6.3 0 1 0 12.6 0 a6.3 6.3 0 1 0 -12.6 0zM1466.85 31.5 a6.3 6.3 0 1 0 12.6 0 a6.3 6.3 0 1 0 -12.6 0zM1521.41 63 a6.3 6.3 0 1 0 12.6 0 a6.3 6.3 0 1 0 -12.6 0zM1521.41 126 a6.3 6.3 0 1 0 12.6 0 a6.3 6.3 0 1 0 -12.6 0zM1466.85 157.5 a6.3 6.3 0 1 0 12.6 0 a6.3 6.3 0 1 0 -12.6 0zM1466.85 220.5 a6.3 6.3 0 1 0 12.6 0 a6.3 6.3 0 1 0 -12.6 0zM1521.41 252 a6.3 6.3 0 1 0 12.6 0 a6.3 6.3 0 1 0 -12.6 0zM1521.41 315 a6.3 6.3 0 1 0 12.6 0 a6.3 6.3 0 1 0 -12.6 0zM1466.85 346.5 a6.3 6.3 0 1 0 12.6 0 a6.3 6.3 0 1 0 -12.6 0zM1466.85 409.5 a6.3 6.3 0 1 0 12.6 0 a6.3 6.3 0 1 0 -12.6 0zM1521.41 441 a6.3 6.3 0 1 0 12.6 0 a6.3 6.3 0 1 0 -12.6 0zM1521.41 504 a6.3 6.3 0 1 0 12.6 0 a6.3 6.3 0 1 0 -12.6 0zM1466.85 535.5 a6.3 6.3 0 1 0 12.6 0 a6.3 6.3 0 1 0 -12.6 0zM1466.85 598.5 a6.3 6.3 0 1 0 12.6 0 a6.3 6.3 0 1 0 -12.6 0zM1412.29 630 a6.3 6.3 0 1 0 12.6 0 a6.3 6.3 0 1 0 -12.6 0z" fill="rgba(255, 255, 255, 0.93)"></path></g><defs><mask id="SvgjsMask1105"><rect width="1440" height="560" fill="#ffffff"></rect></mask></defs></svg>